<svg id="Layer_1" data-name="Layer 1" xmlns="http://www.w3.org/2000/svg" viewBox="0 0 483.55 56.74"><title>logo-hassed</title><path d="M275.91,46.67a5.51,5.51,0,1,0,5.51,5.51A5.51,5.51,0,0,0,275.91,46.67Z" transform="translate(-10.14 -2.87)"/><path d="M162.11,34.7a5.58,5.58,0,0,1-2.29-.47,5.3,5.3,0,0,1-1.8-1.29,5.89,5.89,0,0,1-1.2-1.92,6.59,6.59,0,0,1-.42-2.36,6.83,6.83,0,0,1,.4-2.27A6.17,6.17,0,0,1,158,24.44a5.73,5.73,0,0,1,1.81-1.38,5.23,5.23,0,0,1,2.35-.52,6,6,0,0,1,2.35.45,5.31,5.31,0,0,1,1.85,1.25,5.77,5.77,0,0,1,1.21,1.9,6.38,6.38,0,0,1,.44,2.38,6.3,6.3,0,0,1-.42,2.24,6.44,6.44,0,0,1-1.18,2,5.86,5.86,0,0,1-1.84,1.41A5.33,5.33,0,0,1,162.11,34.7Zm.14-.69a3.32,3.32,0,0,0,1.68-.41,3.39,3.39,0,0,0,1.15-1.14,5.3,5.3,0,0,0,.67-1.7,10,10,0,0,0,.22-2.11,9.81,9.81,0,0,0-.22-2,5.34,5.34,0,0,0-.69-1.75,3.74,3.74,0,0,0-1.23-1.24,3.44,3.44,0,0,0-1.84-.46,3.06,3.06,0,0,0-1.69.44,3.43,3.43,0,0,0-1.12,1.18,5.4,5.4,0,0,0-.6,1.71,10.18,10.18,0,0,0-.19,2,9.89,9.89,0,0,0,.23,2.17,5.39,5.39,0,0,0,.7,1.75,3.59,3.59,0,0,0,1.2,1.16A3.44,3.44,0,0,0,162.25,34Z" transform="translate(-10.14 -2.87)"/><path d="M173.71,34.43V33.9c.76,0,1.13-.24,1.13-.74V30.27c0-1.61-.57-2.42-1.71-2.42s-1.74.72-1.74,2.16v3.15c0,.5.41.74,1.25.74v.53h-3.7V33.9c.65,0,1-.26,1-.81v-4.5c0-.41-.32-.61-.95-.61h-.24v-.46l2.51-.62c0,.05.07.16.07.35v1.06a4.06,4.06,0,0,1,.36-.52,2.25,2.25,0,0,1,.55-.45A2.87,2.87,0,0,1,173,27a3.86,3.86,0,0,1,1-.12,2.29,2.29,0,0,1,.72.13,2.42,2.42,0,0,1,.76.43,2.17,2.17,0,0,1,.61.75,2.22,2.22,0,0,1,.25,1.11v3.9c0,.46.38.68,1.13.68v.53Z" transform="translate(-10.14 -2.87)"/><path d="M184.66,32.69a3.78,3.78,0,0,1-1.23,1.53,3.06,3.06,0,0,1-1.81.55,3.68,3.68,0,0,1-1.54-.3,3.25,3.25,0,0,1-1.11-.81,3.45,3.45,0,0,1-.67-1.22,4.91,4.91,0,0,1-.23-1.5,4.53,4.53,0,0,1,.25-1.52,4,4,0,0,1,.69-1.28,3.35,3.35,0,0,1,1.07-.91,3,3,0,0,1,1.4-.33,4.9,4.9,0,0,1,1,.11,2.6,2.6,0,0,1,1,.45,2.74,2.74,0,0,1,.79,1,4.59,4.59,0,0,1,.44,1.66,1.51,1.51,0,0,1-.06.38H180q-.33,0-.33.27a4,4,0,0,0,.17,1.2,3.52,3.52,0,0,0,.49,1,2.22,2.22,0,0,0,.77.66,2.12,2.12,0,0,0,1,.24,2,2,0,0,0,1.27-.43,4.87,4.87,0,0,0,.93-1Zm-2.38-2.76a.65.65,0,0,0,.72-.74,2.18,2.18,0,0,0-.45-1.17,1.34,1.34,0,0,0-1.14-.5,1.49,1.49,0,0,0-.73.18,1.72,1.72,0,0,0-.57.5,2.11,2.11,0,0,0-.36.7,2.86,2.86,0,0,0-.12.82c0,.14.13.21.38.21Z" transform="translate(-10.14 -2.87)"/><path d="M197.42,33.69a1.26,1.26,0,0,1-1.39.94c-.67,0-1.09-.38-1.26-1.15a3.9,3.9,0,0,1-2.67,1.15,2,2,0,0,1-1.37-.4A1.61,1.61,0,0,1,190.3,33q0-2.17,4.33-3v-.69c0-1.16-.45-1.74-1.34-1.74a2.38,2.38,0,0,0-1,.2.74.74,0,0,0-.42.74.47.47,0,0,1,.16.22,1.12,1.12,0,0,1,.05.31c0,.45-.27.67-.81.67a.71.71,0,0,1-.5-.19.78.78,0,0,1-.21-.6,1.43,1.43,0,0,1,.24-.78,2.48,2.48,0,0,1,.65-.64,3.35,3.35,0,0,1,.91-.44,3.41,3.41,0,0,1,1.06-.17,3.09,3.09,0,0,1,2.07.55,2.35,2.35,0,0,1,.6,1.81v3.83q0,.66.6.66a.93.93,0,0,0,.54-.2Zm-2.72-3.08a6.29,6.29,0,0,0-1.07.18,3.48,3.48,0,0,0-.94.37,2,2,0,0,0-.67.61,1.59,1.59,0,0,0-.26.92,1,1,0,0,0,1.11,1.15,2.14,2.14,0,0,0,.82-.15,1.64,1.64,0,0,0,.52-.4,2,2,0,0,0,.32-.55,2.7,2.7,0,0,0,.17-.6Z" transform="translate(-10.14 -2.87)"/><path d="M202.45,34.43V33.9c.76,0,1.14-.24,1.14-.74V30.27c0-1.61-.57-2.42-1.72-2.42s-1.74.72-1.74,2.16v3.15c0,.5.42.74,1.26.74v.53h-3.71V33.9c.65,0,1-.26,1-.81v-4.5c0-.41-.31-.61-.94-.61h-.25v-.46L200,26.9c0,.05.07.16.07.35v1.06a2.71,2.71,0,0,1,.36-.52,2,2,0,0,1,.54-.45,3,3,0,0,1,.76-.32,3.73,3.73,0,0,1,1-.12,2.29,2.29,0,0,1,.72.13,2.47,2.47,0,0,1,.77.43,2.28,2.28,0,0,1,.61.75,2.33,2.33,0,0,1,.25,1.11v3.9c0,.46.37.68,1.13.68v.53Z" transform="translate(-10.14 -2.87)"/><path d="M215,34.29a7.22,7.22,0,0,1-.9.14c-.41,0-.93.1-1.56.2l-.19-1.15a2.32,2.32,0,0,1-.91.93,2.67,2.67,0,0,1-1.36.34,3.39,3.39,0,0,1-1.23-.22,2.79,2.79,0,0,1-1-.67,3.19,3.19,0,0,1-.7-1.15,4.54,4.54,0,0,1-.26-1.65,4.77,4.77,0,0,1,.28-1.65,3.93,3.93,0,0,1,.77-1.32,3.44,3.44,0,0,1,1.16-.87,3.21,3.21,0,0,1,1.45-.32,2.26,2.26,0,0,1,1.1.25,3.1,3.1,0,0,1,.72.56V23.88c0-.4-.45-.6-1.34-.6v-.54l2.79-.47c0,.44,0,.94.05,1.52s0,1.19,0,1.84v6.65q0,1.48,1.2,1.56Zm-4.4-.42a1.78,1.78,0,0,0,.93-.21A1.4,1.4,0,0,0,212,33a3.11,3.11,0,0,0,.26-1,11,11,0,0,0,.07-1.35c0-2.06-.66-3.1-2-3.1a1.55,1.55,0,0,0-.88.26,2.1,2.1,0,0,0-.62.67,3.48,3.48,0,0,0-.37.93,4.44,4.44,0,0,0-.12,1,6.23,6.23,0,0,0,.12,1.22,3.68,3.68,0,0,0,.36,1.09,2.3,2.3,0,0,0,.67.8A1.76,1.76,0,0,0,210.55,33.87Z" transform="translate(-10.14 -2.87)"/><path d="M226.13,34.7a5.62,5.62,0,0,1-2.29-.47,5.3,5.3,0,0,1-1.8-1.29A5.71,5.71,0,0,1,220.85,31a6.38,6.38,0,0,1-.43-2.36,6.83,6.83,0,0,1,.4-2.27A6.36,6.36,0,0,1,222,24.44a5.73,5.73,0,0,1,1.81-1.38,5.23,5.23,0,0,1,2.35-.52,6,6,0,0,1,2.35.45,5.4,5.4,0,0,1,1.85,1.25,6,6,0,0,1,1.22,1.9,6.58,6.58,0,0,1,.43,2.38,6.3,6.3,0,0,1-.42,2.24,6.61,6.61,0,0,1-1.17,2,6,6,0,0,1-1.85,1.41A5.33,5.33,0,0,1,226.13,34.7Zm.14-.69A3.32,3.32,0,0,0,228,33.6a3.48,3.48,0,0,0,1.15-1.14,5.3,5.3,0,0,0,.67-1.7,9.42,9.42,0,0,0,.22-2.11,9.17,9.17,0,0,0-.22-2,5.34,5.34,0,0,0-.69-1.75,3.83,3.83,0,0,0-1.23-1.24,3.47,3.47,0,0,0-1.84-.46,3,3,0,0,0-1.69.44,3.43,3.43,0,0,0-1.12,1.18,5.4,5.4,0,0,0-.6,1.71,10.18,10.18,0,0,0-.19,2,9.89,9.89,0,0,0,.23,2.17,5.39,5.39,0,0,0,.7,1.75,3.59,3.59,0,0,0,1.2,1.16A3.44,3.44,0,0,0,226.27,34Z" transform="translate(-10.14 -2.87)"/><path d="M237.73,34.43V33.9c.75,0,1.13-.24,1.13-.74V30.27c0-1.61-.57-2.42-1.71-2.42s-1.74.72-1.74,2.16v3.15c0,.5.41.74,1.25.74v.53H233V33.9c.65,0,1-.26,1-.81v-4.5c0-.41-.32-.61-.95-.61h-.24v-.46l2.52-.62a.63.63,0,0,1,.06.35v1.06a3.25,3.25,0,0,1,.36-.52,2.25,2.25,0,0,1,.55-.45A3,3,0,0,1,237,27a3.86,3.86,0,0,1,1-.12,2.29,2.29,0,0,1,.72.13,2.32,2.32,0,0,1,.76.43,2.17,2.17,0,0,1,.61.75,2.22,2.22,0,0,1,.25,1.11v3.9c0,.46.38.68,1.13.68v.53Z" transform="translate(-10.14 -2.87)"/><path d="M242.27,34.43V33.9c.79,0,1.19-.26,1.19-.81v-9c0-.57-.45-.86-1.35-.86V22.8l2.81-.53V33.16c0,.5.45.74,1.33.74v.53Z" transform="translate(-10.14 -2.87)"/><path d="M247.43,28.47a1,1,0,0,0-1-.69v-.53H250v.53h-.35c-.43,0-.65.14-.65.41,0,0,0,.08,0,.14l0,.2c0,.08,0,.16,0,.26l1.8,3.9,1.4-3.64c0-.22.08-.39.11-.5a1.52,1.52,0,0,0,0-.24c0-.35-.37-.53-1.13-.53v-.53h3v.53a1,1,0,0,0-1,.6l-2.12,5.37c-.06.12-.14.29-.24.52l-.37.76c-.14.28-.3.58-.47.87a4.29,4.29,0,0,1-.6.8,3,3,0,0,1-.71.59,1.53,1.53,0,0,1-.82.24c-.62,0-.92-.3-.92-.87s.21-.88.66-.88a.5.5,0,0,1,.42.15.86.86,0,0,1,.15.32,2.58,2.58,0,0,0,.1.33.26.26,0,0,0,.27.15c.08,0,.2-.08.33-.23a4,4,0,0,0,.43-.57,6.17,6.17,0,0,0,.41-.77,4,4,0,0,0,.28-.79Z" transform="translate(-10.14 -2.87)"/><path d="M18.05,56.73l-1.85-4.5-1.94,4.43-.45.07-2.61-6.3a1,1,0,0,0-1.06-.69v-.53h3.47v.53c-.53,0-.8.18-.8.53a2,2,0,0,0,.12.55l1.54,3.83,1.45-3.23-.38-1.22a1.2,1.2,0,0,0-1.07-.46v-.53H18v.53c-.63,0-.95.14-.95.41a3.8,3.8,0,0,0,.15.74l1.45,3.76c.5-1.31.86-2.3,1.1-3a11,11,0,0,1,.45-1.18v-.21c0-.35-.36-.53-1.06-.53v-.53H22v.53a.93.93,0,0,0-.93.69l-2.53,6.23Z" transform="translate(-10.14 -2.87)"/><path d="M22,56.39v-.52c.81,0,1.21-.36,1.21-1.08V51.28c0-.93-.35-1.4-1.07-1.4v-.47l2.53-.55v6c0,.67.45,1,1.33,1v.52Zm1.82-9.47c-.62,0-.92-.36-.92-1.08a.88.88,0,0,1,1-1c.63,0,.94.33.94,1S24.51,46.92,23.83,46.92Z" transform="translate(-10.14 -2.87)"/><path d="M31.5,54.6a4.75,4.75,0,0,1-.27.83,1.87,1.87,0,0,1-.42.66,1.74,1.74,0,0,1-.65.42,2.61,2.61,0,0,1-.94.15,2.07,2.07,0,0,1-1.35-.41,1.65,1.65,0,0,1-.49-1.34v-5H26.24l.07-.53a1.92,1.92,0,0,0,1.29-.92,5.22,5.22,0,0,0,.7-1.78l.54-.07v2.61h1.38a2.94,2.94,0,0,0,.44,0l.37-.09v.81H28.84v4.64a2.88,2.88,0,0,0,0,.42,1,1,0,0,0,.1.38.52.52,0,0,0,.25.28.94.94,0,0,0,.49.11,1.39,1.39,0,0,0,.91-.35,1.6,1.6,0,0,0,.49-.91Z" transform="translate(-10.14 -2.87)"/><path d="M36.7,56.39v-.52q1.14,0,1.14-.75v-2.7c0-1.66-.53-2.48-1.58-2.48a1.84,1.84,0,0,0-2,1.83V55c0,.59.42.89,1.27.89v.52H31.66v-.52c.75,0,1.13-.3,1.13-.89V46.65c0-.94-.35-1.41-1.07-1.41v-.47l2.54-.53,0,6.1a3.17,3.17,0,0,1,2.53-1.41,3.06,3.06,0,0,1,1.1.18,2,2,0,0,1,.77.49,2.22,2.22,0,0,1,.45.73,2.64,2.64,0,0,1,.15.89v3.9q0,.75,1.2.75v.52Z" transform="translate(-10.14 -2.87)"/><path d="M49.83,54.6a5.79,5.79,0,0,1-.26.83,2.2,2.2,0,0,1-.42.66,1.78,1.78,0,0,1-.66.42,2.59,2.59,0,0,1-.93.15,2.07,2.07,0,0,1-1.35-.41,1.63,1.63,0,0,1-.5-1.34v-5H44.57l.07-.53a1.94,1.94,0,0,0,1.3-.92,5.66,5.66,0,0,0,.7-1.78l.53-.07v2.61h1.39a3,3,0,0,0,.44,0l.36-.09v.81H47.17v4.64c0,.15,0,.28,0,.42a1.26,1.26,0,0,0,.1.38.57.57,0,0,0,.25.28,1,1,0,0,0,.49.11,1.37,1.37,0,0,0,.91-.35,1.49,1.49,0,0,0,.49-.91Z" transform="translate(-10.14 -2.87)"/><path d="M55,56.39v-.52q1.14,0,1.14-.75v-2.7c0-1.66-.53-2.48-1.58-2.48a1.84,1.84,0,0,0-2,1.83V55c0,.59.43.89,1.27.89v.52H50v-.52c.75,0,1.13-.3,1.13-.89V46.65c0-.94-.35-1.41-1.07-1.41v-.47l2.54-.53,0,6.1a3.17,3.17,0,0,1,2.53-1.41,3.06,3.06,0,0,1,1.1.18,2,2,0,0,1,.77.49,2.22,2.22,0,0,1,.45.73,2.64,2.64,0,0,1,.15.89v3.9q0,.75,1.2.75v.52Z" transform="translate(-10.14 -2.87)"/><path d="M66,54.65a3.79,3.79,0,0,1-1.22,1.54,3.08,3.08,0,0,1-1.82.54,3.66,3.66,0,0,1-1.53-.3,3.07,3.07,0,0,1-1.11-.81,3.36,3.36,0,0,1-.67-1.22,4.62,4.62,0,0,1-.23-1.5,4.56,4.56,0,0,1,.24-1.52,4,4,0,0,1,.69-1.28,3.5,3.5,0,0,1,1.08-.91,2.91,2.91,0,0,1,1.39-.33,4.45,4.45,0,0,1,1,.12,2.56,2.56,0,0,1,1,.44,2.87,2.87,0,0,1,.78,1A4.47,4.47,0,0,1,66,52a1.46,1.46,0,0,1,0,.38H61.3q-.33,0-.33.27a4,4,0,0,0,.18,1.2,3.26,3.26,0,0,0,.48,1,2.32,2.32,0,0,0,.77.66,2.15,2.15,0,0,0,1,.24,2,2,0,0,0,1.27-.42,5.51,5.51,0,0,0,.94-1ZM63.62,51.9q.72,0,.72-.75A2.21,2.21,0,0,0,63.9,50a1.37,1.37,0,0,0-1.15-.5,1.49,1.49,0,0,0-.73.18,1.94,1.94,0,0,0-.57.5,2.11,2.11,0,0,0-.36.7,2.87,2.87,0,0,0-.12.83c0,.13.13.21.39.21Z" transform="translate(-10.14 -2.87)"/><path d="M74.13,56.73a3.57,3.57,0,0,1-1.5-.31,3.47,3.47,0,0,1-1.16-.83,3.65,3.65,0,0,1-.74-1.21,4.08,4.08,0,0,1-.26-1.48,4.51,4.51,0,0,1,.29-1.67,4.15,4.15,0,0,1,.8-1.28,3.54,3.54,0,0,1,1.2-.81,3.66,3.66,0,0,1,1.44-.28,3.38,3.38,0,0,1,1.46.31A3.49,3.49,0,0,1,76.8,50a3.82,3.82,0,0,1,.74,1.21,4.31,4.31,0,0,1,.26,1.48,4.75,4.75,0,0,1-.29,1.69,3.84,3.84,0,0,1-.81,1.27,3.64,3.64,0,0,1-1.17.8A3.5,3.5,0,0,1,74.13,56.73Zm.07-.62a1.73,1.73,0,0,0,1.08-.3,2.13,2.13,0,0,0,.6-.74,2.75,2.75,0,0,0,.27-.87,6.14,6.14,0,0,0,.06-.76,12,12,0,0,0-.07-1.28,4.7,4.7,0,0,0-.29-1.28,2.51,2.51,0,0,0-.63-1,1.46,1.46,0,0,0-1.09-.4,1.76,1.76,0,0,0-1.09.3,2.14,2.14,0,0,0-.62.73,2.6,2.6,0,0,0-.26.89,4.63,4.63,0,0,0-.07.75c0,.39,0,.82.07,1.28a4.7,4.7,0,0,0,.29,1.28,2.65,2.65,0,0,0,.64,1A1.53,1.53,0,0,0,74.2,56.11Z" transform="translate(-10.14 -2.87)"/><path d="M78.43,56.39v-.52c.75,0,1.13-.34,1.13-1V51.15c0-.84-.4-1.27-1.21-1.27v-.47l1.35-.28L81,48.86v1.7l.09.07a1.58,1.58,0,0,1,.23-.53,3.36,3.36,0,0,1,.45-.58,3,3,0,0,1,.6-.47,1.34,1.34,0,0,1,.7-.19c.88,0,1.32.41,1.32,1.22s-.27,1-.81,1-.71-.22-.71-.65A1.4,1.4,0,0,1,83,50h-.31a1.07,1.07,0,0,0-.83.33,2.35,2.35,0,0,0-.48.81,4.82,4.82,0,0,0-.22,1c0,.35-.07.64-.08.87v1.89q0,1,1.35,1v.52Z" transform="translate(-10.14 -2.87)"/><path d="M84.71,56.39v-.52c.81,0,1.21-.36,1.21-1.08V51.28c0-.93-.36-1.4-1.06-1.4v-.47l2.53-.55v6c0,.67.44,1,1.32,1v.52Zm1.82-9.47c-.61,0-.92-.36-.92-1.08a.88.88,0,0,1,1-1c.63,0,1,.33,1,1S87.21,46.92,86.53,46.92Z" transform="translate(-10.14 -2.87)"/><path d="M91.72,59.61A3.63,3.63,0,0,1,90,59.23a1.24,1.24,0,0,1-.68-1.16c0-.66.5-1.16,1.5-1.48a1.28,1.28,0,0,1-1.12-1.35,1.57,1.57,0,0,1,.41-1,1.31,1.31,0,0,1,.44-.34,1.26,1.26,0,0,1,.55-.12,2.4,2.4,0,0,1-1.32-2.28,2.65,2.65,0,0,1,.19-1,2.24,2.24,0,0,1,.57-.84,2.7,2.7,0,0,1,.93-.57,3.73,3.73,0,0,1,1.3-.21,3.05,3.05,0,0,1,2.06.76,1.69,1.69,0,0,1,.67-.64,1.62,1.62,0,0,1,.79-.19c.49,0,.73.21.73.63s-.18.69-.55.69a.68.68,0,0,1-.57-.26.92.92,0,0,0-.64.35,1.74,1.74,0,0,1,.35.64,2.24,2.24,0,0,1,.1.65,2.5,2.5,0,0,1-.78,2,3.91,3.91,0,0,1-2.52.65l-.39,0-.43-.09c-.57,0-.85.27-.85.7a.54.54,0,0,0,.29.54,2.4,2.4,0,0,0,1,.15h2a3.69,3.69,0,0,1,1,.12,2.43,2.43,0,0,1,.78.36,1.75,1.75,0,0,1,.52.62,2,2,0,0,1,.19.92,1.78,1.78,0,0,1-.22.89,2,2,0,0,1-.61.67,3,3,0,0,1-.94.44,4.46,4.46,0,0,1-1.19.15Zm1.4-.53c1.46,0,2.18-.47,2.18-1.41,0-.63-.7-.94-2.09-.94H91.76a2.09,2.09,0,0,0-.9.34.79.79,0,0,0-.31.69,1.07,1.07,0,0,0,.55,1,2.84,2.84,0,0,0,1.51.34Zm-.5-5.6c1.06,0,1.59-.55,1.59-1.66,0-1.62-.51-2.43-1.54-2.43s-1.53.62-1.53,1.87C91.14,52.74,91.64,53.48,92.62,53.48Z" transform="translate(-10.14 -2.87)"/><path d="M97,56.39v-.52c.81,0,1.21-.36,1.21-1.08V51.28c0-.93-.35-1.4-1.06-1.4v-.47l2.53-.55v6c0,.67.44,1,1.33,1v.52Zm1.82-9.47c-.61,0-.92-.36-.92-1.08a.88.88,0,0,1,1-1c.63,0,1,.33,1,1S99.52,46.92,98.84,46.92Z" transform="translate(-10.14 -2.87)"/><path d="M106.6,56.39v-.52c.75,0,1.13-.25,1.13-.75V52.23c0-1.61-.57-2.41-1.71-2.41s-1.74.71-1.74,2.15v3.15c0,.5.41.75,1.25.75v.52h-3.7v-.52c.65,0,1-.27,1-.82V50.56c0-.42-.32-.62-1-.62h-.24v-.46l2.51-.62c.05,0,.07.16.07.35v1.06a4.06,4.06,0,0,1,.36-.52,2.39,2.39,0,0,1,.54-.45,3.55,3.55,0,0,1,.76-.32,3.86,3.86,0,0,1,1-.12,2.49,2.49,0,0,1,.71.13,2.53,2.53,0,0,1,.77.42,2.3,2.3,0,0,1,.61.76,2.22,2.22,0,0,1,.25,1.11v3.9c0,.46.37.69,1.13.69v.52Z" transform="translate(-10.14 -2.87)"/><path d="M118.26,55.66a1.27,1.27,0,0,1-1.4.93c-.66,0-1.08-.38-1.26-1.15a3.86,3.86,0,0,1-2.66,1.15,2,2,0,0,1-1.37-.4,1.62,1.62,0,0,1-.44-1.26c0-1.45,1.45-2.43,4.34-3v-.69c0-1.15-.45-1.73-1.34-1.73a2.38,2.38,0,0,0-1,.19.74.74,0,0,0-.42.74.47.47,0,0,1,.16.22,1.12,1.12,0,0,1,0,.31c0,.45-.27.68-.81.68a.72.72,0,0,1-.5-.2.78.78,0,0,1-.21-.6,1.43,1.43,0,0,1,.24-.78,2.59,2.59,0,0,1,.64-.64,3.5,3.5,0,0,1,.91-.44,3.24,3.24,0,0,1,1.07-.17,3,3,0,0,1,2.06.55,2.31,2.31,0,0,1,.61,1.81v3.83q0,.66.6.66a.9.9,0,0,0,.54-.2Zm-2.72-3.09a6.29,6.29,0,0,0-1.07.18,3.48,3.48,0,0,0-.94.37,2,2,0,0,0-.67.61,1.61,1.61,0,0,0-.26.92,1,1,0,0,0,1.11,1.14,2,2,0,0,0,.82-.14,1.39,1.39,0,0,0,.52-.4,2,2,0,0,0,.32-.55,3.38,3.38,0,0,0,.17-.6Z" transform="translate(-10.14 -2.87)"/><path d="M118.52,56.39v-.52c.8,0,1.19-.27,1.19-.82V46.11c0-.58-.45-.87-1.34-.87v-.47l2.81-.53V55.12c0,.5.44.75,1.33.75v.52Z" transform="translate(-10.14 -2.87)"/><polygon points="243.95 42.12 242.54 46.16 243.43 46.43 245.71 42.66 243.95 42.12"/><path d="M249.87,47.09l.39-.52a1.09,1.09,0,0,1,.28-.26.65.65,0,0,1,.29-.11,2.43,2.43,0,0,1,.42,0v-.72l-.76,0h-1.67l-.78,0v.72c.59,0,.92,0,1,.12s0,.27-.2.54l-2.42,3.21-2.32-3.16c-.21-.3-.27-.5-.19-.58a1.57,1.57,0,0,1,.86-.13v-.69l-1,0h-2.28c-.36,0-.68,0-.94,0v.71l.57,0a1.14,1.14,0,0,1,.75.36c.11.12.25.27.41.46l3,4.17v3.34a5,5,0,0,1,0,.66.66.66,0,0,1-.2.37,1,1,0,0,1-.43.17,5.11,5.11,0,0,1-.75,0v.7l1,0h2.43l1.07,0v-.7a5.11,5.11,0,0,1-.75,0,.85.85,0,0,1-.44-.18.7.7,0,0,1-.2-.37,3.65,3.65,0,0,1,0-.65V51Zm-13.17.7L238,51.65h-2.71Zm1.6,4.68.69,2c.1.3.17.54.22.71a.5.5,0,0,1,0,.39.51.51,0,0,1-.36.18,4.77,4.77,0,0,1-.75,0v.68h4.22v-.65a6.2,6.2,0,0,1-.65-.11,1.21,1.21,0,0,1-.46-.21,1.26,1.26,0,0,1-.33-.41,5,5,0,0,1-.3-.7l-3.23-9.3h-.84l-3.33,9.27a5.7,5.7,0,0,1-.28.69,1.33,1.33,0,0,1-.3.42,1,1,0,0,1-.43.23,3.17,3.17,0,0,1-.68.06v.71h3.86v-.68a3.45,3.45,0,0,1-.75-.07.64.64,0,0,1-.37-.23.51.51,0,0,1-.06-.4,3.4,3.4,0,0,1,.18-.59l.7-2ZM224,46.31a1.58,1.58,0,0,1,.34,0h.53a3.66,3.66,0,0,1,1.18.16,1.87,1.87,0,0,1,.78.45,1.64,1.64,0,0,1,.41.68,2.65,2.65,0,0,1,.13.87,2.47,2.47,0,0,1-.13.79,1.83,1.83,0,0,1-.45.7,2.2,2.2,0,0,1-.8.51,3.29,3.29,0,0,1-1.21.2l-.78,0Zm2.16,6.28.9,1.33.93,1.35c.32.45.62.85.91,1.22.38,0,.81,0,1.28,0s.91,0,1.34,0v-.71a1.85,1.85,0,0,1-1.07-.28,3.9,3.9,0,0,1-.74-.67q-.27-.31-.63-.78c-.24-.31-.48-.64-.73-1s-.5-.69-.73-1-.44-.67-.62-1a2.63,2.63,0,0,0,.77-.35,3,3,0,0,0,.68-.6,3.3,3.3,0,0,0,.49-.81,2.58,2.58,0,0,0,.19-1,3.3,3.3,0,0,0-.16-.91,2.52,2.52,0,0,0-.56-.93,3.38,3.38,0,0,0-1.12-.72,5,5,0,0,0-1.82-.29l-1,0h-3.54v.69a5.11,5.11,0,0,1,.75,0,.9.9,0,0,1,.43.17.72.72,0,0,1,.19.38,4.12,4.12,0,0,1,0,.68V54.4a5.23,5.23,0,0,1,0,.77.63.63,0,0,1-.18.41.85.85,0,0,1-.43.18,7.56,7.56,0,0,1-.76,0v.7q.35,0,1,0h2.56l1,0v-.71a5.15,5.15,0,0,1-.78-.05.67.67,0,0,1-.62-.61,5.82,5.82,0,0,1,0-.69v-3h1.38l.78,1.17m-8.28.62a4.06,4.06,0,0,1-.72,1.44,3.13,3.13,0,0,1-1.14.94,3.5,3.5,0,0,1-1.55.33,3,3,0,0,1-1.73-.51,4.59,4.59,0,0,1-1.26-1.3,6.46,6.46,0,0,1-.75-1.72,6.84,6.84,0,0,1-.26-1.78,6.06,6.06,0,0,1,.27-1.86,4.2,4.2,0,0,1,.76-1.44,3.36,3.36,0,0,1,1.16-.93,3.32,3.32,0,0,1,1.48-.34,3.07,3.07,0,0,1,1.23.24,3.88,3.88,0,0,1,1,.64,4.65,4.65,0,0,1,.77.93,6.84,6.84,0,0,1,.55,1.12,8.32,8.32,0,0,1,.33,1.21,7,7,0,0,1,.11,1.18,6.27,6.27,0,0,1-.25,1.85m1.67-4.43a6,6,0,0,0-1.21-1.8,5.84,5.84,0,0,0-1.8-1.24,5.3,5.3,0,0,0-2.2-.47,5.42,5.42,0,0,0-2.34.5,6,6,0,0,0-1.8,1.32A5.84,5.84,0,0,0,209,48.94a5.77,5.77,0,0,0-.41,2.1,5.48,5.48,0,0,0,.44,2.15,5.82,5.82,0,0,0,1.21,1.8,6.1,6.1,0,0,0,1.79,1.24,5.35,5.35,0,0,0,2.22.46,5.28,5.28,0,0,0,2.34-.5,5.8,5.8,0,0,0,1.8-1.31A6,6,0,0,0,219.57,53a5.71,5.71,0,0,0,.4-2.1,5.48,5.48,0,0,0-.44-2.15m-13.85-3.25-2.62,0h-2.63c-.86,0-1.62,0-2.29-.06l-.21,2.31h1a4.81,4.81,0,0,1,.22-.74,1.15,1.15,0,0,1,.28-.43,1,1,0,0,1,.45-.19,4.72,4.72,0,0,1,.73,0h1.58v8a3.49,3.49,0,0,1-.06.73.69.69,0,0,1-.2.41.9.9,0,0,1-.43.19,4.67,4.67,0,0,1-.74.05v.7l1,0h3.48v-.68a4.91,4.91,0,0,1-.75-.05,1,1,0,0,1-.44-.19.69.69,0,0,1-.19-.41,4.53,4.53,0,0,1,0-.73v-8h1.85a2.85,2.85,0,0,1,.66.06.65.65,0,0,1,.38.21.81.81,0,0,1,.16.43,5.73,5.73,0,0,1,.06.71h.94l.12-2.31-2.29.05m-14.36,1.82a2.57,2.57,0,0,1,.06-.55,2,2,0,0,1,.17-.5,1.52,1.52,0,0,1,.26-.37.51.51,0,0,1,.35-.13.82.82,0,0,1,.24,0,.76.76,0,0,1,.2.06l.22,0a1.58,1.58,0,0,0,.34,0,1.25,1.25,0,0,0,.32-.05,1,1,0,0,0,.3-.13.88.88,0,0,0,.22-.21.45.45,0,0,0,.09-.28.65.65,0,0,0-.29-.57,1.46,1.46,0,0,0-.77-.19,2.39,2.39,0,0,0-.83.24,3.88,3.88,0,0,0-1.18.85,3.53,3.53,0,0,0-.57.75,6,6,0,0,0-.4.9,6.56,6.56,0,0,0-.23.95,5.88,5.88,0,0,0-.08.9.61.61,0,0,1-.32.61,2.32,2.32,0,0,1-.77.25v.54h1.09v4.42a1.24,1.24,0,0,1-.05.41.46.46,0,0,1-.19.26.84.84,0,0,1-.38.13,3.69,3.69,0,0,1-.63,0v.71l1,0h2.31l1,0v-.7l-.74,0a1.17,1.17,0,0,1-.44-.11.43.43,0,0,1-.21-.25,1.26,1.26,0,0,1-.05-.43V50.52h2v-.93h-2Zm-5.45,6.71a3.53,3.53,0,0,1-.36.94,2.4,2.4,0,0,1-.63.71A1.56,1.56,0,0,1,184,56a1.5,1.5,0,0,1-1-.32,2.37,2.37,0,0,1-.67-.8,4,4,0,0,1-.38-1,4.74,4.74,0,0,1-.11-1,4.52,4.52,0,0,1,.11-1,3.16,3.16,0,0,1,.35-.95,2.09,2.09,0,0,1,.63-.69,1.68,1.68,0,0,1,1.9,0,2.5,2.5,0,0,1,.67.77,3.91,3.91,0,0,1,.38,1,5.25,5.25,0,0,1,.12,1.08,4.75,4.75,0,0,1-.11,1m1.6-2.68a3.31,3.31,0,0,0-.84-1.17,3.82,3.82,0,0,0-1.28-.76,4.58,4.58,0,0,0-1.59-.27,3.52,3.52,0,0,0-1.49.31,3.7,3.7,0,0,0-2,2,3.92,3.92,0,0,0-.27,1.44,3.61,3.61,0,0,0,.31,1.53,3.46,3.46,0,0,0,.85,1.17,3.85,3.85,0,0,0,1.25.76,4.55,4.55,0,0,0,1.53.26,3.65,3.65,0,0,0,1.47-.3,3.88,3.88,0,0,0,1.2-.82,3.68,3.68,0,0,0,.81-1.21,3.59,3.59,0,0,0,.29-1.46,3.78,3.78,0,0,0-.29-1.52m-35.54,4.17a2.85,2.85,0,0,1-.62-1,7.69,7.69,0,0,1-.4-1.53,14.07,14.07,0,0,1,0-4,8.1,8.1,0,0,1,.38-1.56,3,3,0,0,1,.61-1,1.09,1.09,0,0,1,1.64,0,3,3,0,0,1,.62,1,7.34,7.34,0,0,1,.39,1.57,15.07,15.07,0,0,1,0,3.95,6.8,6.8,0,0,1-.39,1.53,2.75,2.75,0,0,1-.61,1,1.18,1.18,0,0,1-.83.35,1.09,1.09,0,0,1-.79-.36m-2.66-2.35a6.06,6.06,0,0,0,.66,1.81,3.59,3.59,0,0,0,1.13,1.25,3.2,3.2,0,0,0,3.32,0A3.62,3.62,0,0,0,155.52,55a6.16,6.16,0,0,0,.66-1.81,10.74,10.74,0,0,0,.21-2.15,10.61,10.61,0,0,0-.21-2.13,6.18,6.18,0,0,0-.65-1.83,3.68,3.68,0,0,0-1.14-1.27,2.86,2.86,0,0,0-1.67-.48,2.83,2.83,0,0,0-1.66.48,3.7,3.7,0,0,0-1.13,1.28,6.19,6.19,0,0,0-.66,1.83,11,11,0,0,0,0,4.28m-5.59,2.35a2.84,2.84,0,0,1-.61-1,7.69,7.69,0,0,1-.4-1.53,14.59,14.59,0,0,1,0-4,7.4,7.4,0,0,1,.39-1.56,2.85,2.85,0,0,1,.61-1,1.13,1.13,0,0,1,.82-.37,1.09,1.09,0,0,1,.81.37,2.83,2.83,0,0,1,.63,1,7.34,7.34,0,0,1,.39,1.57,15.07,15.07,0,0,1,0,3.95,6.8,6.8,0,0,1-.39,1.53,2.76,2.76,0,0,1-.62,1,1.15,1.15,0,0,1-.82.35,1.11,1.11,0,0,1-.8-.36M141,53.2a6.34,6.34,0,0,0,.65,1.81,3.69,3.69,0,0,0,1.13,1.25,2.92,2.92,0,0,0,1.67.46,2.81,2.81,0,0,0,1.65-.47A3.65,3.65,0,0,0,147.28,55a6.16,6.16,0,0,0,.66-1.81,10.74,10.74,0,0,0,.21-2.15,10.61,10.61,0,0,0-.21-2.13,6.48,6.48,0,0,0-.65-1.83,3.89,3.89,0,0,0-1.14-1.27,3.15,3.15,0,0,0-3.34,0,3.8,3.8,0,0,0-1.13,1.28,6.48,6.48,0,0,0-.65,1.83,11,11,0,0,0,0,4.28m-5.59,2.35a2.85,2.85,0,0,1-.62-1,7.09,7.09,0,0,1-.39-1.53,12.12,12.12,0,0,1-.15-2,13.32,13.32,0,0,1,.14-2,8.1,8.1,0,0,1,.38-1.56,2.86,2.86,0,0,1,.62-1,1.09,1.09,0,0,1,.81-.37,1.11,1.11,0,0,1,.82.37,2.82,2.82,0,0,1,.62,1,7.34,7.34,0,0,1,.39,1.57,14,14,0,0,1,0,3.95,6.8,6.8,0,0,1-.39,1.53,2.75,2.75,0,0,1-.61,1,1.18,1.18,0,0,1-.83.35,1.09,1.09,0,0,1-.79-.36m-2.65-2.35a5.79,5.79,0,0,0,.65,1.81,3.59,3.59,0,0,0,1.13,1.25,2.89,2.89,0,0,0,1.66.46,2.84,2.84,0,0,0,1.66-.47A3.75,3.75,0,0,0,139,55a6.16,6.16,0,0,0,.66-1.81,10.74,10.74,0,0,0,.21-2.15,10.61,10.61,0,0,0-.21-2.13,6.19,6.19,0,0,0-.66-1.83,3.68,3.68,0,0,0-1.14-1.27,2.86,2.86,0,0,0-1.67-.48,2.83,2.83,0,0,0-1.66.48,3.7,3.7,0,0,0-1.13,1.28,5.91,5.91,0,0,0-.65,1.83,11,11,0,0,0,0,4.28m-7.42-7.72-1,2.29.86.22.42-.61A3,3,0,0,1,126,47a1.2,1.2,0,0,1,.4-.22,2,2,0,0,1,.53-.06h2.91l-3.11,9.76h1.52l3.42-10.69-.2-.29Z" transform="translate(-10.14 -2.87)"/><path d="M165.28,51.54a3.24,3.24,0,0,0-1.34-.68,2.71,2.71,0,0,0,1.13-.83,2.3,2.3,0,0,0,.5-1.45,2.47,2.47,0,0,0-.63-1.67,3.33,3.33,0,0,0-1.8-1,9,9,0,0,0-2-.19h-4.57v.49H157a1,1,0,0,1,.81.3c.09.1.2.38.2,1.14v6.67a2.2,2.2,0,0,1-.16,1.08,1,1,0,0,1-.85.37h-.49v.48h5a7.88,7.88,0,0,0,2.63-.33,2.88,2.88,0,0,0,1.38-1.06,2.65,2.65,0,0,0,.51-1.53A2.38,2.38,0,0,0,165.28,51.54Zm-1.79-2a1.67,1.67,0,0,1-.81.69,4.24,4.24,0,0,1-1.63.24c-.29,0-.55,0-.79,0s-.39,0-.55-.06V46.58a5,5,0,0,1,1.27-.15,3.1,3.1,0,0,1,2.09.62,1.87,1.87,0,0,1,.7,1.47A1.94,1.94,0,0,1,163.49,49.55Zm-3.78,1.71a2.65,2.65,0,0,1,.44,0l.81,0a4.67,4.67,0,0,1,1.79.31,2.17,2.17,0,0,1,1,.84,2.21,2.21,0,0,1,.31,1.11,1.82,1.82,0,0,1-.69,1.45,3,3,0,0,1-2,.6,7.7,7.7,0,0,1-1.64-.18Z" transform="translate(-10.14 -2.87)"/><path d="M176.64,55.77a1.78,1.78,0,0,1-1.07-.38,8.68,8.68,0,0,1-1.35-1.71L172,50.44l2-2.57a8.83,8.83,0,0,1,.95-1.08,3.1,3.1,0,0,1,.73-.46,2,2,0,0,1,.67-.12h.1v-.48h-3.87v.48h.1a2.19,2.19,0,0,1,.69.06.58.58,0,0,1,.25.19.36.36,0,0,1,.07.22.63.63,0,0,1-.06.27,3.85,3.85,0,0,1-.38.55l-1.75,2.21L170,47.46a1.57,1.57,0,0,1-.35-.77.41.41,0,0,1,.18-.31,1.49,1.49,0,0,1,.78-.17h.1v-.48h-5v.48h.1a2.41,2.41,0,0,1,1.28.38,5.93,5.93,0,0,1,1.38,1.56l2,2.92-2.39,3a6.37,6.37,0,0,1-1,1,3.71,3.71,0,0,1-.87.52,2.31,2.31,0,0,1-.64.15h-.09v.47h3.86v-.48h-.1a1.35,1.35,0,0,1-.72-.16.38.38,0,0,1-.17-.33.58.58,0,0,1,.06-.26,3.11,3.11,0,0,1,.4-.57L171,51.78l1.67,2.54a5.36,5.36,0,0,1,.41.65.85.85,0,0,1,.06.31.43.43,0,0,1-.08.23.55.55,0,0,1-.22.18,1.85,1.85,0,0,1-.62.08h-.1v.48h4.63v-.47Z" transform="translate(-10.14 -2.87)"/><polygon points="301.12 24.29 287.59 24.29 287.59 1.03 279.56 1.03 279.56 54.89 287.59 54.89 287.59 33.14 301.12 33.14 301.12 54.89 309.07 54.89 309.07 1.03 301.12 1.03 301.12 24.29"/><path d="M338.46,3.9,325.6,57.76h9.15l2.37-12.87h11.5l2.31,12.87h9.15L347.4,3.9ZM346.12,36h-6.58l3.3-15.7Z" transform="translate(-10.14 -2.87)"/><polygon points="430.13 46.13 430.13 31.73 446.05 31.73 446.05 22.88 430.13 22.88 430.13 9.72 447.21 9.72 447.21 1.12 422.18 1.12 422.18 54.99 447.22 54.99 447.22 46.13 430.13 46.13"/><path d="M390,32.87h0a16.15,16.15,0,0,0-3.21-3.21c-.93-.7-2.58-1.83-4.9-3.36l-2.26-1.43c-1.7-1.1-2.87-1.9-3.59-2.47a8.47,8.47,0,0,1-1.84-1.66,4.43,4.43,0,0,1-.68-1.59,19,19,0,0,1-.09-2.22,7.62,7.62,0,0,1,.75-4c.74-1,2.34-1.5,4.39-1.5s3.82.57,4.44,1.38c.46.59.75,1.12.75,3.1v4.28h8.2V13.7a10.16,10.16,0,0,0-2.37-6.36c-.18-.19-.4-.41-.64-.63a15.2,15.2,0,0,0-10-3.84,14.33,14.33,0,0,0-10.56,4.81,7.87,7.87,0,0,0-.75.92c-.07.1-.13.21-.2.32s-.07.11-.12.19l-.09.15-.15.25c-.14.26-.28.54-.42.86l-.07.16c-.11.27-.22.57-.34.93l0,0a.56.56,0,0,0,0,.12l0,.1,0,.1-.08.05v.18a19,19,0,0,0-.72,5.49v.12c0,.09,0,.16,0,.24a.71.71,0,0,0,0,.15v1.38l.06-.06a13.3,13.3,0,0,0,2.28,7c1.11,1.48,3.52,3.47,7.39,6.09s6.35,4.73,7.54,6.44A9.61,9.61,0,0,1,384,44.53a6.78,6.78,0,0,1-1,4.09,5.28,5.28,0,0,1-4.46,2c-2.18,0-4.13-.93-4.75-1.83a7.67,7.67,0,0,1-.77-4.1V40.9H364.9V46c0,3.72.84,6.48,2.48,8.21a15.38,15.38,0,0,0,10.9,4.57,14.67,14.67,0,0,0,10.8-4.92c2.08-2.22,3.14-5.82,3.14-10.67a30.15,30.15,0,0,0-.51-6.14A11.57,11.57,0,0,0,390,32.87Z" transform="translate(-10.14 -2.87)"/><path d="M421.94,32.87h0a16.14,16.14,0,0,0-3.21-3.21c-.94-.71-2.59-1.84-4.91-3.36l-2.25-1.44c-1.69-1.08-2.86-1.88-3.59-2.46a8.45,8.45,0,0,1-1.84-1.66,4.24,4.24,0,0,1-.67-1.58,16.1,16.1,0,0,1-.1-2.23,7.5,7.5,0,0,1,.76-4c.73-1,2.33-1.5,4.39-1.5s3.81.57,4.43,1.38c.46.59.76,1.12.76,3.1v4.28h8.19V13.7a10.12,10.12,0,0,0-2.37-6.36c-.21-.22-.42-.44-.64-.63a15.2,15.2,0,0,0-10-3.84,14.35,14.35,0,0,0-10.56,4.81,7.63,7.63,0,0,0-.74.92,3,3,0,0,0-.21.33c0,.05-.07.11-.11.17l-.07.11-.18.3c-.13.24-.26.51-.43.89l0,.09,0,0c-.11.27-.23.58-.34.94l0,.06,0,.1,0,.12a.49.49,0,0,1,0,.11l-.06.07v.13a19.07,19.07,0,0,0-.72,5.49v.12c0,.11,0,.21,0,.32v1.16l0,0a13.55,13.55,0,0,0,2.3,7.29c1.1,1.47,3.52,3.46,7.39,6.09s6.35,4.73,7.55,6.44A9.68,9.68,0,0,1,416,44.53a6.76,6.76,0,0,1-1,4.09,5.28,5.28,0,0,1-4.46,2c-2.18,0-4.13-.93-4.75-1.84-.51-.71-.77-2.08-.77-4.09V40.9h-8.14V46c0,3.71.83,6.48,2.48,8.21a15.4,15.4,0,0,0,10.9,4.57A14.67,14.67,0,0,0,421,53.88c2.08-2.22,3.14-5.82,3.14-10.67a29.88,29.88,0,0,0-.51-6.14A11.8,11.8,0,0,0,421.94,32.87Z" transform="translate(-10.14 -2.87)"/><path d="M483.86,4H466.21V57.85h17.64c6.62,0,9.84-3.17,9.84-9.71V13.71C493.69,7.28,490.57,4.19,483.86,4Zm-9.49,7.84h8.23c2.42,0,2.93,1.72,2.93,3.15V46.86c0,1.43-.51,3.15-2.93,3.15h-8.23Z" transform="translate(-10.14 -2.87)"/></svg>