<svg id="Layer_1" data-name="Layer 1" xmlns="http://www.w3.org/2000/svg" viewBox="0 0 223.28 55.93"><defs><style>.cls-1{fill:#12100b;}</style></defs><path class="cls-1" d="M489.09,437.18a5.51,5.51,0,1,0,5.51,5.51A5.51,5.51,0,0,0,489.09,437.18Z" transform="translate(-483.59 -393.38)"/><polygon class="cls-1" points="40.85 24.29 27.33 24.29 27.33 1.03 19.3 1.03 19.3 54.89 27.33 54.89 27.33 33.14 40.85 33.14 40.85 54.89 48.8 54.89 48.8 1.03 40.85 1.03 40.85 24.29"/><path class="cls-1" d="M551.65,394.41l-12.87,53.87h9.15l2.37-12.87h11.5l2.31,12.87h9.15l-12.68-53.87Zm7.65,32.15h-6.58l3.3-15.71Z" transform="translate(-483.59 -393.38)"/><polygon class="cls-1" points="169.86 46.13 169.86 31.73 185.78 31.73 185.78 22.88 169.86 22.88 169.86 9.72 186.94 9.72 186.94 1.12 161.91 1.12 161.91 54.99 186.95 54.99 186.95 46.13 169.86 46.13"/><path class="cls-1" d="M603.16,423.38h0a15.9,15.9,0,0,0-3.21-3.22c-.93-.7-2.57-1.83-4.9-3.35l-2.26-1.44c-1.7-1.09-2.87-1.89-3.59-2.46a8.73,8.73,0,0,1-1.84-1.66,4.48,4.48,0,0,1-.68-1.6,18.9,18.9,0,0,1-.09-2.21,7.69,7.69,0,0,1,.75-4c.75-1,2.34-1.5,4.39-1.5s3.82.57,4.45,1.39c.45.58.74,1.11.74,3.09v4.28h8.2v-6.46a10.11,10.11,0,0,0-2.37-6.35,7.7,7.7,0,0,0-.64-.63,15.2,15.2,0,0,0-10-3.85,14.37,14.37,0,0,0-10.56,4.81,8,8,0,0,0-.74.93,3.53,3.53,0,0,0-.21.32l-.12.18-.09.15-.15.26a7.72,7.72,0,0,0-.41.86l-.08.16c-.11.26-.22.56-.34.92,0,0,0,0,0,0l0,.12,0,.1,0,.1-.07.06v.17a18.74,18.74,0,0,0-.73,5.5v.12c0,.08,0,.16,0,.24s0,.1,0,.15V410l.06-.06a13.3,13.3,0,0,0,2.28,7c1.11,1.47,3.53,3.46,7.39,6.09s6.35,4.73,7.55,6.43a9.68,9.68,0,0,1,1.47,5.59,6.76,6.76,0,0,1-1,4.09,5.28,5.28,0,0,1-4.46,2c-2.18,0-4.13-.93-4.75-1.84a7.63,7.63,0,0,1-.77-4.09v-3.81h-8.14v5.13c0,3.72.84,6.48,2.49,8.2a15.36,15.36,0,0,0,10.89,4.57,14.71,14.71,0,0,0,10.8-4.91c2.08-2.23,3.14-5.82,3.14-10.68a30.21,30.21,0,0,0-.51-6.14A11.65,11.65,0,0,0,603.16,423.38Z" transform="translate(-483.59 -393.38)"/><path class="cls-1" d="M635.12,423.38h0a16.25,16.25,0,0,0-3.22-3.22c-.94-.71-2.59-1.84-4.9-3.35l-2.26-1.44c-1.69-1.09-2.86-1.89-3.59-2.46a9,9,0,0,1-1.84-1.66,4.46,4.46,0,0,1-.67-1.59,17.83,17.83,0,0,1-.1-2.22,7.57,7.57,0,0,1,.76-4c.74-1,2.34-1.5,4.39-1.5s3.81.57,4.43,1.39c.46.58.76,1.11.76,3.09v4.28h8.19v-6.46a10.11,10.11,0,0,0-2.37-6.35,7.57,7.57,0,0,0-.64-.63,15.2,15.2,0,0,0-10-3.85,14.39,14.39,0,0,0-10.56,4.81,7.75,7.75,0,0,0-.74.93,2.66,2.66,0,0,0-.21.33l-.11.16-.06.11a3.21,3.21,0,0,0-.19.31c-.13.24-.26.51-.43.89l0,.08,0,.05c-.11.27-.22.57-.34.93l0,.07,0,.1a.76.76,0,0,0,0,.11l-.05.12,0,.06v.13a18.79,18.79,0,0,0-.73,5.5v1.59l0,0a13.62,13.62,0,0,0,2.3,7.3c1.1,1.46,3.52,3.46,7.39,6.09s6.35,4.73,7.55,6.43a9.68,9.68,0,0,1,1.47,5.59,6.74,6.74,0,0,1-1,4.09,5.26,5.26,0,0,1-4.46,2c-2.18,0-4.12-.93-4.75-1.84-.51-.71-.77-2.09-.77-4.09v-3.81H610v5.13c0,3.71.84,6.47,2.48,8.2a15.4,15.4,0,0,0,10.9,4.57,14.71,14.71,0,0,0,10.8-4.91c2.08-2.23,3.14-5.82,3.14-10.68a29.84,29.84,0,0,0-.51-6.13A11.77,11.77,0,0,0,635.12,423.38Z" transform="translate(-483.59 -393.38)"/><path class="cls-1" d="M697,394.51H679.39v53.86H697c6.62,0,9.84-3.18,9.84-9.71V404.23C706.87,397.8,703.75,394.71,697,394.51Zm-9.49,7.85h8.23c2.42,0,2.93,1.71,2.93,3.15v31.86c0,1.44-.51,3.15-2.93,3.15h-8.23Z" transform="translate(-483.59 -393.38)"/></svg>