<?xml version="1.0" encoding="utf-8"?>
<!-- Generator: Adobe Illustrator 16.0.0, SVG Export Plug-In . SVG Version: 6.00 Build 0)  -->
<!DOCTYPE svg PUBLIC "-//W3C//DTD SVG 1.1//EN" "http://www.w3.org/Graphics/SVG/1.1/DTD/svg11.dtd">
<svg version="1.1" xmlns="http://www.w3.org/2000/svg" xmlns:xlink="http://www.w3.org/1999/xlink" x="0px" y="0px"
	 width="181.417px" height="181.417px" viewBox="0 0 181.417 181.417" enable-background="new 0 0 181.417 181.417"
	 xml:space="preserve">
<g id="레이어_1">
	<path fill="#FFFFFF" d="M168.934,51.407c-1.882-7.029-7.406-12.553-14.436-14.436c-12.728-3.413-63.79-3.413-63.79-3.413
		s-51.062,0-63.79,3.413c-7.029,1.883-12.554,7.406-14.436,14.436C9.069,64.136,9.069,90.708,9.069,90.708s0,26.572,3.414,39.301
		c1.882,7.029,7.406,12.555,14.436,14.436c12.729,3.414,63.79,3.414,63.79,3.414s51.063,0,63.79-3.414
		c7.029-1.881,12.554-7.406,14.436-14.436c3.414-12.729,3.414-39.301,3.414-39.301S172.334,64.136,168.934,51.407z M74.365,115.2
		V66.222l42.42,24.488L74.365,115.2z"/>
</g>
<g id="레이어_2" display="none">
	<g display="inline">
		<path fill="#FFFFFF" d="M135.501,65.043c-1.045-2.682-2.289-4.598-4.301-6.61c-2.011-2.012-3.924-3.257-6.604-4.299
			c-2.027-0.787-5.068-1.723-10.672-1.98c-6.062-0.275-7.879-0.33-23.227-0.33c-1.919,0-3.626-0.002-5.157,0l0.001-0.014
			c-10.713,0.012-12.767,0.083-18.069,0.323c-5.604,0.257-8.646,1.191-10.674,1.981c-2.682,1.044-4.598,2.29-6.609,4.302
			c-2.012,2.011-3.26,3.927-4.301,6.609c-0.787,2.027-1.724,5.068-1.979,10.672c-0.275,6.06-0.331,7.87-0.331,23.219
			s0.056,17.169,0.331,23.228c0.255,5.604,1.192,8.646,1.979,10.67c1.044,2.684,2.289,4.596,4.301,6.605
			c2.012,2.014,3.928,3.258,6.609,4.301c2.027,0.785,5.069,1.723,10.674,1.98c6.059,0.275,7.877,0.336,23.226,0.336
			c15.348,0,17.167-0.061,23.227-0.336c5.604-0.256,8.646-1.189,10.672-1.98c2.683-1.041,4.594-2.287,6.604-4.299
			c2.012-2.01,3.258-3.92,4.301-6.602c0.786-2.023,1.725-5.066,1.979-10.67c0.275-6.061,0.336-7.88,0.336-23.219
			c0-15.34-0.061-17.16-0.336-23.219C137.226,70.108,136.288,67.067,135.501,65.043z M90.698,128.455
			c-16.301,0-29.518-13.209-29.518-29.511c0-16.3,13.217-29.516,29.517-29.517h-0.001h0.002h-0.001
			c16.3,0.001,29.515,13.217,29.515,29.517C120.211,115.246,107,128.455,90.698,128.455z M121.378,75.161
			c-3.808,0-6.897-3.09-6.897-6.898c0-3.809,3.09-6.895,6.897-6.895v-0.002c3.81,0,6.899,3.089,6.899,6.897
			C128.278,72.071,125.188,75.161,121.378,75.161z"/>
		<path fill="#FFFFFF" d="M168.404,54.845c-0.491-6.25-1.563-10.454-3.744-14.896c-1.789-3.637-3.777-6.353-6.663-9.129
			c-5.15-4.919-11.448-7.913-18.956-8.995c-3.637-0.525-4.359-0.682-22.969-0.714H90.734c-32.502,0-42.007,0.034-43.854,0.188
			c-6.671,0.554-10.82,1.604-15.342,3.855c-3.485,1.73-6.233,3.736-8.945,6.547c-4.939,5.127-7.933,11.436-9.017,18.935
			c-0.527,3.64-0.681,4.382-0.711,22.977c-0.012,6.197,0,14.355,0,25.296c0,32.476,0.035,41.972,0.191,43.815
			c0.539,6.488,1.557,10.572,3.712,15.039c4.119,8.551,11.986,14.969,21.255,17.363c3.209,0.826,6.753,1.281,11.304,1.498
			c1.928,0.084,21.578,0.143,41.24,0.143s39.324-0.023,41.205-0.119c5.269-0.248,8.328-0.66,11.71-1.533
			c9.329-2.406,17.052-8.73,21.255-17.398c2.114-4.359,3.186-8.6,3.672-14.75c0.105-1.34,0.149-22.724,0.149-44.078
			C168.558,77.529,168.509,56.186,168.404,54.845z M147.823,122.64c-0.288,6.118-1.259,10.294-2.671,13.95
			c-1.474,3.779-3.436,6.986-6.633,10.18c-3.195,3.197-6.396,5.166-10.176,6.635c-3.656,1.422-7.838,2.391-13.958,2.67
			c-6.13,0.279-8.083,0.348-23.694,0.348c-15.609,0-17.566-0.068-23.698-0.348c-6.118-0.279-10.296-1.248-13.952-2.67
			c-3.779-1.469-6.985-3.438-10.179-6.635c-3.196-3.193-5.16-6.4-6.63-10.18c-1.42-3.656-2.389-7.832-2.67-13.951
			c-0.277-6.131-0.348-8.084-0.348-23.694s0.072-17.569,0.347-23.701c0.275-6.116,1.245-10.294,2.671-13.95
			c1.473-3.779,3.437-6.986,6.633-10.181c3.195-3.196,6.402-5.16,10.183-6.628c3.654-1.421,7.831-2.39,13.95-2.67
			c6.13-0.279,8.089-0.347,23.69-0.347c-0.003,0-0.006,0-0.009,0h0.019c-0.003,0-0.006,0-0.01,0c15.607,0,17.561,0.068,23.69,0.347
			c6.118,0.28,10.297,1.249,13.962,2.67c3.784,1.467,6.981,3.43,10.179,6.628c3.197,3.195,5.159,6.401,6.633,10.182
			c1.412,3.654,2.383,7.832,2.671,13.951c0.275,6.13,0.346,8.089,0.346,23.699S148.098,116.509,147.823,122.64z"/>
		<circle fill="#FFFFFF" cx="90.698" cy="98.944" r="19.159"/>
	</g>
</g>
<g id="레이어_3" display="none">
	<g display="inline">
		<polygon fill="#FFFFFF" points="70.898,81.686 79.38,81.686 75.139,69.638 		"/>
		<path fill="#FFFFFF" d="M90.708,18.354c-40.649,0-73.602,25.981-73.602,58.031c0,20.722,13.776,38.902,34.499,49.169
			c-1.127,3.889-7.244,25.014-7.487,26.673c0,0-0.147,1.248,0.661,1.723c0.808,0.477,1.756,0.107,1.756,0.107
			c2.316-0.324,26.854-17.56,31.101-20.553c4.242,0.601,8.61,0.913,13.072,0.913c40.648,0,73.602-25.981,73.602-58.032
			C164.31,44.335,131.357,18.354,90.708,18.354z M54.261,92.588c0,2.236-1.903,4.056-4.246,4.056c-2.341,0-4.246-1.819-4.246-4.056
			V67.362h-6.625c-2.297,0-4.168-1.865-4.168-4.158s1.871-4.157,4.168-4.157h21.743c2.298,0,4.167,1.865,4.167,4.157
			s-1.87,4.158-4.167,4.158h-6.626V92.588z M89.948,96.003c-0.847,0.386-1.767,0.586-2.698,0.585l0,0l0,0l0,0
			c-1.771,0-3.126-0.719-3.533-1.875l-2.103-5.504l-12.949-0.001l-2.104,5.507c-0.407,1.154-1.762,1.873-3.532,1.873
			c-0.93,0.001-1.852-0.199-2.699-0.586c-1.17-0.54-2.295-2.024-1.005-6.029l10.156-26.735c0.716-2.032,2.889-4.127,5.655-4.19
			c2.773,0.062,4.946,2.158,5.663,4.195l10.153,26.723C92.245,93.979,91.119,95.465,89.948,96.003z M111.41,96.023H97.786
			c-2.243,0-4.068-1.746-4.068-3.892V63.293c0-2.343,1.943-4.246,4.333-4.246c2.391,0,4.335,1.903,4.335,4.246v24.946h9.024
			c2.243,0,4.068,1.747,4.068,3.893S113.653,96.023,111.41,96.023z M144.649,92.827c-0.153,1.115-0.746,2.124-1.647,2.8
			c-0.734,0.559-1.631,0.858-2.554,0.856c-1.334,0.007-2.592-0.619-3.393-1.688l-9.958-13.193l-1.473,1.472v9.265
			c-0.002,2.346-1.903,4.245-4.248,4.249c-2.342,0-4.246-1.904-4.246-4.246V63.293c0-2.343,1.904-4.246,4.246-4.246
			c2.341,0,4.246,1.903,4.246,4.246v9.126l11.847-11.847c0.609-0.61,1.446-0.946,2.355-0.946c1.061,0,2.125,0.458,2.922,1.255
			c0.744,0.742,1.188,1.699,1.249,2.691c0.061,1.002-0.271,1.92-0.938,2.586l-9.678,9.674l10.454,13.847
			C144.515,90.577,144.81,91.711,144.649,92.827z"/>
	</g>
</g>
<g id="레이어_4" display="none">
	<g display="inline">
		<path fill="#FFFFFF" d="M64.014,98.75c-2.505,0.086-4.62,0.548-6.215,1.902h-0.081v-9.827h-5.895v25.722h5.895v-1.25h0.081
			c1.27,0.965,2.983,1.676,5.334,1.676c2.601,0,4.99-0.742,6.544-2.497c1.557-1.753,2.325-3.412,2.325-6.309
			c0-2.669-0.971-5.078-2.298-6.612C68.372,100.012,66.148,98.68,64.014,98.75z M64.653,111.146
			c-0.815,0.812-1.787,1.217-2.923,1.217c-1.124,0-2.085-0.405-2.878-1.217c-0.798-0.813-1.196-1.795-1.196-2.946
			c0-1.156,0.398-2.14,1.196-2.952c0.793-0.808,1.754-1.217,2.878-1.217c1.136,0,2.107,0.409,2.923,1.217
			c0.813,0.813,1.214,1.796,1.214,2.952C65.867,109.351,65.465,110.332,64.653,111.146z"/>
		<path fill="#FFFFFF" d="M103.725,101.445c-0.956-0.894-2.054-1.578-3.292-2.052c-1.239-0.477-2.552-0.714-3.934-0.714
			c-1.352,0-2.645,0.237-3.869,0.714c-1.23,0.474-2.325,1.158-3.298,2.052c-0.996,0.942-1.746,1.981-2.259,3.124
			c-0.512,1.14-0.763,2.349-0.763,3.63c0,1.274,0.251,2.489,0.763,3.625c0.513,1.144,1.263,2.18,2.259,3.121
			c0.973,0.896,2.067,1.58,3.298,2.055c1.225,0.477,2.518,0.717,3.869,0.717c1.382,0,2.694-0.24,3.934-0.717
			c1.238-0.475,2.336-1.159,3.292-2.055c0.971-0.902,1.705-1.935,2.213-3.085c0.504-1.152,0.755-2.373,0.755-3.661
			c0-1.294-0.251-2.516-0.755-3.666C105.43,103.379,104.696,102.354,103.725,101.445z M99.416,111.106
			c-0.81,0.813-1.782,1.219-2.921,1.219c-1.12,0-2.081-0.406-2.874-1.219c-0.799-0.813-1.198-1.792-1.198-2.947
			c0-1.153,0.399-2.135,1.198-2.944c0.793-0.817,1.754-1.22,2.874-1.22c1.139,0,2.111,0.402,2.921,1.22
			c0.814,0.81,1.22,1.791,1.22,2.944C100.635,109.314,100.23,110.294,99.416,111.106z"/>
		<path fill="#FFFFFF" d="M73.416,90.297v6.37c0,0,2.903,0.48,2.903,4.152c0,2.403,0,15.919,0,15.919h6.017c0,0,0-12.772,0-15.721
			C81.848,90.813,73.416,90.297,73.416,90.297z"/>
		<path fill="#FFFFFF" d="M164.117,112.021c-3.816-46.158-12.163-73.333-73.409-73.333c-61.249,0-69.594,27.176-73.405,73.333
			c-4.923,59.577,16.741,72.495,73.405,72.495C147.37,184.517,169.037,171.599,164.117,112.021z M140.941,128.845
			c0,6.022-4.925,10.953-10.953,10.953H99.021c0,0-6.44,16.265-8.616,16.265c-2.171,0-8.13-16.265-8.13-16.265H51.424
			c-6.019,0-10.949-4.931-10.949-10.953V84.42c0-6.026,4.93-10.954,10.949-10.954h78.563c6.028,0,10.953,4.928,10.953,10.954
			V128.845z"/>
		<path fill="#FFFFFF" d="M123.729,100.267h-0.072c-1.43-1.297-2.886-1.856-5.197-1.856c-2.584,0-4.84,0.858-6.422,2.702
			c-1.586,1.845-2.378,4.336-2.378,7.476c0,2.799,0.713,5.03,2.133,6.692c1.422,1.668,3.522,2.563,5.942,2.563
			c2.613,0,4.576-0.678,5.922-2.53h0.072v1.198c0.008,3.106-3.295,4.685-5.694,4.444v4.672c2.874,0.408,6.292,0.247,8.684-2.026
			c2.017-1.915,2.871-4.667,2.871-9.185V98.859h-5.86V100.267z M122.603,111.146c-0.81,0.812-1.786,1.217-2.923,1.217
			c-1.119,0-2.079-0.405-2.877-1.217c-0.795-0.813-1.195-1.795-1.195-2.946c0-1.156,0.4-2.14,1.195-2.952
			c0.798-0.808,1.758-1.217,2.877-1.217c1.137,0,2.113,0.409,2.923,1.217c0.811,0.813,1.215,1.796,1.215,2.952
			C123.818,109.351,123.414,110.332,122.603,111.146z"/>
	</g>
</g>
<g id="레이어_5" display="none">
	<g display="inline">
		<path fill="#FFFFFF" d="M164.821,74.03C160.973,27.43,152.547,0,90.711,0S20.451,27.43,16.596,74.03
			c-4.967,60.15,16.904,73.188,74.115,73.188C147.917,147.218,169.792,134.181,164.821,74.03z M82.71,24.612l24.28-0.01
			c0.34,0,0.668,0.133,0.912,0.379c0.24,0.241,0.369,0.569,0.363,0.913c-0.342,20.303-20.346,23.543-20.545,23.57
			c-0.063,0.012-0.128,0.016-0.194,0.016h-25.65c-0.354,0-0.695-0.147-0.936-0.411c-0.244-0.263-0.358-0.611-0.333-0.97
			C62.328,27.75,82.503,24.642,82.71,24.612z M126.991,89.792h-10.119c-1.951,10.789-9.488,32.822-38.454,32.822
			c-38.349,0-39.138-38.643-39.138-38.643V60.77c0-0.707,0.563-1.274,1.269-1.274h63.057h12.688h10.697
			c8.352,0,15.146,6.793,15.146,15.146C142.137,82.997,135.342,89.792,126.991,89.792z"/>
		<path fill="#FFFFFF" d="M126.639,67.197c-4.068,0-7.357,3.294-7.357,7.361c0,4.062,3.289,7.349,7.357,7.349
			c4.057,0,7.348-3.287,7.348-7.349C133.987,70.491,130.696,67.197,126.639,67.197z"/>
	</g>
</g>
</svg>
