<?xml version="1.0" encoding="utf-8"?>
<!-- Generator: Adobe Illustrator 16.0.0, SVG Export Plug-In . SVG Version: 6.00 Build 0)  -->
<!DOCTYPE svg PUBLIC "-//W3C//DTD SVG 1.1//EN" "http://www.w3.org/Graphics/SVG/1.1/DTD/svg11.dtd">
<svg version="1.1" xmlns="http://www.w3.org/2000/svg" xmlns:xlink="http://www.w3.org/1999/xlink" x="0px" y="0px" width="348px"
	 height="94px" viewBox="0 0 348 94" enable-background="new 0 0 348 94" xml:space="preserve">
<g id="레이어_1" display="none">
	<g display="inline">
		<path d="M24.212,68.202v15.275H11.288V68.202H24.212z"/>
		<path d="M34.396,13.565h14.1v26.731h16.45V13.565h14.1v69.912h-14.1V52.438h-16.45v31.039h-14.1V13.565z"/>
		<path d="M102.452,13.565h17.429l18.506,69.912H123.7l-3.231-14.785h-18.604l-3.231,14.785H83.946L102.452,13.565z M104.313,57.137
			h13.708l-6.756-31.431h-0.196L104.313,57.137z"/>
		<path d="M154.645,61.642v2.056c0,6.56,1.86,10.771,9.302,10.771c4.308,0,8.42-2.742,8.42-8.617c0-6.267-3.133-8.812-12.533-11.945
			c-12.533-4.21-18.31-9.596-18.31-21.15c0-13.708,8.225-20.563,21.639-20.563c12.533,0,21.64,5.385,21.64,18.8v1.958H171.29
			c0-6.658-2.154-10.379-7.637-10.379c-6.364,0-8.029,3.917-8.029,8.127c0,4.308,1.272,7.05,7.246,9.498l10.869,4.7
			c10.575,4.7,13.316,9.889,13.316,18.506c0,14.785-9.008,21.443-24.283,21.443c-15.96,0-22.227-7.441-22.227-20.366v-2.839H154.645
			z"/>
		<path d="M205.467,61.642v2.056c0,6.56,1.86,10.771,9.302,10.771c4.309,0,8.421-2.742,8.421-8.617
			c0-6.267-3.133-8.812-12.533-11.945c-12.533-4.21-18.311-9.596-18.311-21.15c0-13.708,8.226-20.563,21.64-20.563
			c12.533,0,21.64,5.385,21.64,18.8v1.958h-13.513c0-6.658-2.154-10.379-7.637-10.379c-6.365,0-8.029,3.917-8.029,8.127
			c0,4.308,1.272,7.05,7.245,9.498l10.869,4.7c10.575,4.7,13.316,9.889,13.316,18.506c0,14.785-9.008,21.443-24.283,21.443
			c-15.96,0-22.227-7.441-22.227-20.366v-2.839H205.467z"/>
		<path d="M283.998,13.565v11.554H259.03v16.45h23.499v11.554H259.03v18.8h25.947v11.554H244.93V13.565H283.998z"/>
		<path d="M292.715,13.565h23.108c19.485,0,23.108,13.316,23.108,33.977c0,24.675-5.288,35.935-23.99,35.935h-22.227V13.565z
			 M306.814,73.098h6.267c9.792,0,11.75-6.169,11.75-25.165c0-15.862-1.37-23.989-12.043-23.989h-5.974V73.098z"/>
	</g>
</g>
<g id="레이어_2">
	<g>
		<path fill="#FFFFFF" d="M24.212,68.202v15.275H11.288V68.202H24.212z"/>
		<path fill="#FFFFFF" d="M34.396,13.565h14.1v26.731h16.45V13.565h14.1v69.912h-14.1V52.438h-16.45v31.039h-14.1V13.565z"/>
		<path fill="#FFFFFF" d="M102.452,13.565h17.429l18.506,69.912H123.7l-3.231-14.785h-18.604l-3.231,14.785H83.946L102.452,13.565z
			 M104.313,57.137h13.708l-6.756-31.431h-0.196L104.313,57.137z"/>
		<path fill="#FFFFFF" d="M154.645,61.642v2.056c0,6.56,1.86,10.771,9.302,10.771c4.308,0,8.42-2.742,8.42-8.617
			c0-6.267-3.133-8.812-12.533-11.945c-12.533-4.21-18.31-9.596-18.31-21.15c0-13.708,8.225-20.563,21.639-20.563
			c12.533,0,21.64,5.385,21.64,18.8v1.958H171.29c0-6.658-2.154-10.379-7.637-10.379c-6.364,0-8.029,3.917-8.029,8.127
			c0,4.308,1.272,7.05,7.246,9.498l10.869,4.7c10.575,4.7,13.316,9.889,13.316,18.506c0,14.785-9.008,21.443-24.283,21.443
			c-15.96,0-22.227-7.441-22.227-20.366v-2.839H154.645z"/>
		<path fill="#FFFFFF" d="M205.467,61.642v2.056c0,6.56,1.86,10.771,9.302,10.771c4.309,0,8.421-2.742,8.421-8.617
			c0-6.267-3.133-8.812-12.533-11.945c-12.533-4.21-18.311-9.596-18.311-21.15c0-13.708,8.226-20.563,21.64-20.563
			c12.533,0,21.64,5.385,21.64,18.8v1.958h-13.513c0-6.658-2.154-10.379-7.637-10.379c-6.365,0-8.029,3.917-8.029,8.127
			c0,4.308,1.272,7.05,7.245,9.498l10.869,4.7c10.575,4.7,13.316,9.889,13.316,18.506c0,14.785-9.008,21.443-24.283,21.443
			c-15.96,0-22.227-7.441-22.227-20.366v-2.839H205.467z"/>
		<path fill="#FFFFFF" d="M283.998,13.565v11.554H259.03v16.45h23.499v11.554H259.03v18.8h25.947v11.554H244.93V13.565H283.998z"/>
		<path fill="#FFFFFF" d="M292.715,13.565h23.108c19.485,0,23.108,13.316,23.108,33.977c0,24.675-5.288,35.935-23.99,35.935h-22.227
			V13.565z M306.814,73.098h6.267c9.792,0,11.75-6.169,11.75-25.165c0-15.862-1.37-23.989-12.043-23.989h-5.974V73.098z"/>
	</g>
</g>
</svg>
