<?xml version="1.0" encoding="utf-8"?>
<!-- Generator: Adobe Illustrator 16.0.0, SVG Export Plug-In . SVG Version: 6.00 Build 0)  -->
<!DOCTYPE svg PUBLIC "-//W3C//DTD SVG 1.1//EN" "http://www.w3.org/Graphics/SVG/1.1/DTD/svg11.dtd">
<svg version="1.1" id="레이어_1" xmlns="http://www.w3.org/2000/svg" xmlns:xlink="http://www.w3.org/1999/xlink" x="0px"
	 y="0px" width="348px" height="94px" viewBox="0 0 348 94" enable-background="new 0 0 348 94" xml:space="preserve">
<g id="레이어_1_1_">
	<g>
		<path fill="#595757" d="M24.212,68.202v15.274H11.288V68.202H24.212z"/>
		<path fill="#595757" d="M34.396,13.565h14.101v26.731h16.449V13.565h14.101v69.912H64.946V52.438H48.496v31.039H34.396V13.565z"/>
		<path fill="#595757" d="M102.452,13.565h17.429l18.506,69.912H123.7l-3.231-14.785h-18.604l-3.23,14.785H83.946L102.452,13.565z
			 M104.313,57.137h13.708l-6.756-31.431h-0.196L104.313,57.137z"/>
		<path fill="#595757" d="M154.645,61.643v2.056c0,6.56,1.86,10.771,9.302,10.771c4.309,0,8.421-2.742,8.421-8.617
			c0-6.267-3.134-8.812-12.533-11.944c-12.533-4.21-18.311-9.596-18.311-21.15c0-13.708,8.226-20.563,21.64-20.563
			c12.532,0,21.64,5.385,21.64,18.8v1.958H171.29c0-6.658-2.154-10.379-7.638-10.379c-6.363,0-8.028,3.917-8.028,8.127
			c0,4.308,1.271,7.05,7.246,9.498l10.868,4.7c10.575,4.7,13.316,9.889,13.316,18.506c0,14.785-9.008,21.443-24.283,21.443
			c-15.96,0-22.227-7.441-22.227-20.367v-2.838H154.645L154.645,61.643z"/>
		<path fill="#595757" d="M205.467,61.643v2.056c0,6.56,1.86,10.771,9.302,10.771c4.31,0,8.421-2.742,8.421-8.617
			c0-6.267-3.133-8.812-12.532-11.944c-12.533-4.21-18.312-9.596-18.312-21.15c0-13.708,8.226-20.563,21.64-20.563
			c12.533,0,21.641,5.385,21.641,18.8v1.958h-13.514c0-6.658-2.153-10.379-7.637-10.379c-6.365,0-8.029,3.917-8.029,8.127
			c0,4.308,1.272,7.05,7.245,9.498l10.869,4.7c10.575,4.7,13.316,9.889,13.316,18.506c0,14.785-9.008,21.443-24.283,21.443
			c-15.96,0-22.227-7.441-22.227-20.367v-2.838H205.467L205.467,61.643z"/>
		<path fill="#595757" d="M283.998,13.565v11.554H259.03v16.45h23.499v11.554H259.03v18.8h25.947v11.554H244.93V13.565H283.998z"/>
		<path fill="#595757" d="M292.715,13.565h23.107c19.485,0,23.108,13.316,23.108,33.977c0,24.675-5.288,35.935-23.99,35.935h-22.227
			L292.715,13.565L292.715,13.565z M306.814,73.098h6.267c9.792,0,11.75-6.168,11.75-25.164c0-15.863-1.369-23.99-12.043-23.99
			h-5.974V73.098z"/>
	</g>
</g>
<g id="레이어_2" display="none">
	<g display="inline">
		<path fill="#FFFFFF" d="M24.212,68.202v15.274H11.288V68.202H24.212z"/>
		<path fill="#FFFFFF" d="M34.396,13.565h14.101v26.731h16.449V13.565h14.101v69.912H64.946V52.438H48.496v31.039H34.396V13.565z"/>
		<path fill="#FFFFFF" d="M102.452,13.565h17.429l18.506,69.912H123.7l-3.231-14.785h-18.604l-3.23,14.785H83.946L102.452,13.565z
			 M104.313,57.137h13.708l-6.756-31.431h-0.196L104.313,57.137z"/>
		<path fill="#FFFFFF" d="M154.645,61.643v2.056c0,6.56,1.86,10.771,9.302,10.771c4.309,0,8.421-2.742,8.421-8.617
			c0-6.267-3.134-8.812-12.533-11.944c-12.533-4.21-18.311-9.596-18.311-21.15c0-13.708,8.226-20.563,21.64-20.563
			c12.532,0,21.64,5.385,21.64,18.8v1.958H171.29c0-6.658-2.154-10.379-7.638-10.379c-6.363,0-8.028,3.917-8.028,8.127
			c0,4.308,1.271,7.05,7.246,9.498l10.868,4.7c10.575,4.7,13.316,9.889,13.316,18.506c0,14.785-9.008,21.443-24.283,21.443
			c-15.96,0-22.227-7.441-22.227-20.367v-2.838H154.645L154.645,61.643z"/>
		<path fill="#FFFFFF" d="M205.467,61.643v2.056c0,6.56,1.86,10.771,9.302,10.771c4.31,0,8.421-2.742,8.421-8.617
			c0-6.267-3.133-8.812-12.532-11.944c-12.533-4.21-18.312-9.596-18.312-21.15c0-13.708,8.226-20.563,21.64-20.563
			c12.533,0,21.641,5.385,21.641,18.8v1.958h-13.514c0-6.658-2.153-10.379-7.637-10.379c-6.365,0-8.029,3.917-8.029,8.127
			c0,4.308,1.272,7.05,7.245,9.498l10.869,4.7c10.575,4.7,13.316,9.889,13.316,18.506c0,14.785-9.008,21.443-24.283,21.443
			c-15.96,0-22.227-7.441-22.227-20.367v-2.838H205.467L205.467,61.643z"/>
		<path fill="#FFFFFF" d="M283.998,13.565v11.554H259.03v16.45h23.499v11.554H259.03v18.8h25.947v11.554H244.93V13.565H283.998z"/>
		<path fill="#FFFFFF" d="M292.715,13.565h23.107c19.485,0,23.108,13.316,23.108,33.977c0,24.675-5.288,35.935-23.99,35.935h-22.227
			L292.715,13.565L292.715,13.565z M306.814,73.098h6.267c9.792,0,11.75-6.168,11.75-25.164c0-15.863-1.369-23.99-12.043-23.99
			h-5.974V73.098z"/>
	</g>
</g>
</svg>
